[img]http://img715.imageshack.us/img715/3941/posterqu.jpg[/img]
[code]
Title: Beethoven's Christmas Adventure 2011 DvDRiP XviD - VISUALiSE
Format: Xvid
Language: English
Subtitles: No
Imdb: http://www.imdb.com/title/tt1855134/

Plot:
A Christmas elf accidentally takes off in Santa's sleigh, 
crash lands in a small town, and loses the magic toy bag. 
Beethoven must rescue the elf, recover the bag from greedy 
crooks, and return the sleigh to Santa in time to save 
Christmas

Sources:
Video:   Retail DVDR - Many Thanks German Pal  
Audio:   Retail DVDR - Many Thanks German Pal   

Release Notes:
Beethoven's Christmas Adventure 2011 DvDRiP XviD - VISUALiSE
Straight forward rip from the dvdr ran 
a few filters etc etc  

enjoy. 

Info:
Video
ID                               : 0
Format                           : MPEG-4 Visual
Codec ID                         : XVID
Codec ID/Hint                    : XviD
Duration                         : 1h 25mn
Bit rate                         : 90.0 Kbps
Width                            : 720 pixels
Height                           : 402 pixels
Display aspect ratio             : 16:9
Frame rate                       : 29.970 fps
Color space                      : YUV
Chroma subsampling               : 4:2:0
Compression mode                 : Lossy
Bits/(Pixel*Frame)               : 0.010
Stream size                      : 55.3 MiB (5%)

Audio
ID                               : 1
Format                           : MPEG Audio
Codec ID                         : 55
Codec ID/Hint                    : MP3
Duration                         : 1h 25mn
Bit rate                         : 128 Kbps
Channel(s)                       : 2 channels
Sampling rate                    : 48.0 KHz
Compression mode                 : Lossy
Stream size                      : 78.6 MiB (7%)
Alignment                        : Aligned on interleaves

[/code]
Screens:
[img]http://img444.imageshack.us/img444/9483/67616463.png[/img]
[img]http://img511.imageshack.us/img511/6563/70014421.png[/img]
[img]http://img51.imageshack.us/img51/4020/55141615.png[/img]
[img]http://img560.imageshack.us/img560/586/24892125.png[/img]
[img]http://img210.imageshack.us/img210/4237/14085803.png[/img]